# xmcd
#
# Track frame offsets: 
#        300
#        45202
#        72040
#        111191
#        140712
#        168298
#        190885
#        235161
#        259042
#
# Disc length: 3942 seconds
#
# Revision: 0
# Processed by: cddbd v1.5.2PL0 Copyright (c) Steve Scherf et al.
# Submitted via: ExactAudioCopy v1.0b1
#
DISCID=760f6209
DTITLE=Joanna Connor - Live 24
DYEAR=2011
DGENRE=Blues
TTITLE0=Statesboro Blues
TTITLE1=Rock And Roll Gypsy
TTITLE2=Stormy Monday
TTITLE3=Little Wing
TTITLE4=Born Under A Bad Sign
TTITLE5=Here I Am Baby
TTITLE6=Walkin' Blues
TTITLE7=Howlin'
TTITLE8=Boogie Woogie Nighthawk
EXTD=
EXTT0=
EXTT1=
EXTT2=
EXTT3=
EXTT4=
EXTT5=
EXTT6=
EXTT7=
EXTT8=
PLAYORDER=
